ffmpeg version 2.8.11-0ubuntu0.16.04.1 Copyright (c) 2000-2017 the FFmpeg developers
  built with gcc 5.4.0 (Ubuntu 5.4.0-6ubuntu1~16.04.4) 20160609
  configuration: --prefix=/usr --extra-version=0ubuntu0.16.04.1 --build-suffix=-ffmpeg --toolchain=hardened --libdir=/usr/lib/x86_64-linux-gnu --incdir=/usr/include/x86_64-linux-gnu --cc=cc --cxx=g++ --enable-gpl --enable-shared --disable-stripping --disable-decoder=libopenjpeg --disable-decoder=libschroedinger --enable-avresample --enable-avisynth --enable-gnutls --enable-ladspa --enable-libass --enable-libbluray --enable-libbs2b --enable-libcaca --enable-libcdio --enable-libflite --enable-libfontconfig --enable-libfreetype --enable-libfribidi --enable-libgme --enable-libgsm --enable-libmodplug --enable-libmp3lame --enable-libopenjpeg --enable-libopus --enable-libpulse --enable-librtmp --enable-libschroedinger --enable-libshine --enable-libsnappy --enable-libsoxr --enable-libspeex --enable-libssh --enable-libtheora --enable-libtwolame --enable-libvorbis --enable-libvpx --enable-libwavpack --enable-libwebp --enable-libx265 --enable-libxvid --enable-libzvbi --enable-openal --enable-opengl --enable-x11grab --enable-libdc1394 --enable-libiec61883 --enable-libzmq --enable-frei0r --enable-libx264 --enable-libopencv
  libavutil      54. 31.100 / 54. 31.100
  libavcodec     56. 60.100 / 56. 60.100
  libavformat    56. 40.101 / 56. 40.101
  libavdevice    56.  4.100 / 56.  4.100
  libavfilter     5. 40.101 /  5. 40.101
  libavresample   2.  1.  0 /  2.  1.  0
  libswscale      3.  1.101 /  3.  1.101
  libswresample   1.  2.101 /  1.  2.101
  libpostproc    53.  3.100 / 53.  3.100
[mp3 @ 0x1af18c0] Unknown attached picture mimetype: ('image/png', None), skipping.
[mp3 @ 0x1af18c0] Skipping 0 bytes of junk at 17522.
Input #0, mp3, from 'adam-mickiewicz-sonety-krymskie-gora-kikineis.mp3':
  Metadata:
    title           : Adam Mickiewicz, Sonety krymskie, Góra Kikineis
    artist          : Piotr Głowacki
    album           : Wolne Lektury
    encoder         : Lavf53.21.0
    genre           : Speech
    originator_reference: f7djBdWbSrfaaaGk
    date            : 2008-10-09
    performer       : Sebastian Buttny
    album_artist    : Fundacja Nowoczesna Polska
    time_reference  : 22882086
    copyright       : 2008 Fundacja Nowoczesna Polska. Licensed to the public under http://creativecommons.org/licenses/by-sa/3.0/deed.pl verify at http://wolnelektury.pl/katalog/lektura/sonety-krymskie-gora-kikineis/
    creation_time   : 0006-40-47
    encoded_by      : Pro Tools
    publisher       : Fundacja Nowoczesna Polska
  Duration: 00:01:09.56, start: 0.000000, bitrate: 66 kb/s
    Stream #0:0: Audio: mp3, 44100 Hz, mono, s16p, 64 kb/s
Output #0, null, to 'pipe:':
  Metadata:
    title           : Adam Mickiewicz, Sonety krymskie, Góra Kikineis
    artist          : Piotr Głowacki
    album           : Wolne Lektury
    publisher       : Fundacja Nowoczesna Polska
    genre           : Speech
    originator_reference: f7djBdWbSrfaaaGk
    date            : 2008-10-09
    performer       : Sebastian Buttny
    album_artist    : Fundacja Nowoczesna Polska
    time_reference  : 22882086
    copyright       : 2008 Fundacja Nowoczesna Polska. Licensed to the public under http://creativecommons.org/licenses/by-sa/3.0/deed.pl verify at http://wolnelektury.pl/katalog/lektura/sonety-krymskie-gora-kikineis/
    encoded_by      : Pro Tools
    encoder         : Lavf56.40.101
    Stream #0:0: Audio: pcm_s16le, 44100 Hz, mono, s16, 705 kb/s
    Metadata:
      encoder         : Lavc56.60.100 pcm_s16le
Stream mapping:
  Stream #0:0 -> #0:0 (mp3 (native) -> pcm_s16le (native))
Press [q] to stop, [?] for help
[silencedetect @ 0x1b0f220] silence_start: -0.00367347
[silencedetect @ 0x1b0f220] silence_end: 0.940408 | silence_duration: 0.944082
[silencedetect @ 0x1b0f220] silence_start: 1.98163
[silencedetect @ 0x1b0f220] silence_end: 2.56 | silence_duration: 0.578367
[silencedetect @ 0x1b0f220] silence_start: 3.62735
[silencedetect @ 0x1b0f220] silence_end: 6.11265 | silence_duration: 2.48531
[silencedetect @ 0x1b0f220] silence_start: 7.38898
[silencedetect @ 0x1b0f220] silence_end: 8.41143 | silence_duration: 1.02245
[silencedetect @ 0x1b0f220] silence_start: 9.06082
[silencedetect @ 0x1b0f220] silence_end: 11.8073 | silence_duration: 2.74653
[silencedetect @ 0x1b0f220] silence_start: 12.9269
[silencedetect @ 0x1b0f220] silence_end: 14.8376 | silence_duration: 1.91061
[silencedetect @ 0x1b0f220] silence_start: 17.002
[silencedetect @ 0x1b0f220] silence_end: 19.0433 | silence_duration: 2.04122
[silencedetect @ 0x1b0f220] silence_start: 22.2527
[silencedetect @ 0x1b0f220] silence_end: 22.7788 | silence_duration: 0.526122
[silencedetect @ 0x1b0f220] silence_start: 26.3278
[silencedetect @ 0x1b0f220] silence_end: 27.1412 | silence_duration: 0.813469
[silencedetect @ 0x1b0f220] silence_start: 29.5669
[silencedetect @ 0x1b0f220] silence_end: 31.2424 | silence_duration: 1.67551
[silencedetect @ 0x1b0f220] silence_start: 33.6682
[silencedetect @ 0x1b0f220] silence_end: 34.8996 | silence_duration: 1.23143
[silencedetect @ 0x1b0f220] silence_start: 37.482
[silencedetect @ 0x1b0f220] silence_end: 39.2359 | silence_duration: 1.75388
[silencedetect @ 0x1b0f220] silence_start: 41.322
[silencedetect @ 0x1b0f220] silence_end: 42.3184 | silence_duration: 0.996327
[silencedetect @ 0x1b0f220] silence_start: 43.02
[silencedetect @ 0x1b0f220] silence_end: 43.9118 | silence_duration: 0.891837
[silencedetect @ 0x1b0f220] silence_start: 44.6657
[silencedetect @ 0x1b0f220] silence_end: 45.5837 | silence_duration: 0.917959
[silencedetect @ 0x1b0f220] silence_start: 46.6771
[silencedetect @ 0x1b0f220] silence_end: 47.8824 | silence_duration: 1.20531
[silencedetect @ 0x1b0f220] silence_start: 50.1776
[silencedetect @ 0x1b0f220] silence_end: 51.3567 | silence_duration: 1.17918
[silencedetect @ 0x1b0f220] silence_start: 53.6518
[silencedetect @ 0x1b0f220] silence_end: 55.0661 | silence_duration: 1.41429
[silencedetect @ 0x1b0f220] silence_start: 58.1188
[silencedetect @ 0x1b0f220] silence_end: 59.5592 | silence_duration: 1.44041
[silencedetect @ 0x1b0f220] silence_start: 60.8878
[silencedetect @ 0x1b0f220] silence_end: 61.7012 | silence_duration: 0.813469
[silencedetect @ 0x1b0f220] silence_start: 62.7686
[silencedetect @ 0x1b0f220] silence_end: 63.9739 | silence_duration: 1.20531
[silencedetect @ 0x1b0f220] silence_start: 64.6755
[silencedetect @ 0x1b0f220] silence_end: 65.6457 | silence_duration: 0.970204
[silencedetect @ 0x1b0f220] silence_start: 67.2616
size=N/A time=00:01:09.56 bitrate=N/A    
video:0kB audio:5992kB subtitle:0kB other streams:0kB global headers:0kB muxing overhead: unknown
